PathFileType	4	(X/Y/Z)	/home/abdul/Desktop/myosuite/custom_workspace/IK/output/S19_12_2.trc
DataRate	CameraRate	NumFrames	NumMarkers	Units	OrigDataRate	OrigDataStartFrame	OrigNumFrames
200.0	200.0	79	3	mm	200.0	1290	1474
Frame#	Time	V_Shoulder			V_Elbow			V_Wrist		
		X1	Y1	Z1	X2	Y2	Z2	X3	Y3	Z3

1290	6.445	-111.21651308906512	677.6117207370454	315.45198941523984				-208.18276701588846	317.7998195230753	31.171874304768608
1291	6.45	-111.33989884745442	677.8392485372747	315.4268174838425				-207.95220345291443	317.872292277915	31.115511319053436
1292	6.455	-111.46037532715104	678.0624744792813	315.403265606886				-207.7203568951103	317.93605414086346	31.069088378388177
1293	6.46	-111.5778715823003	678.2814509975466	315.3813719083601				-207.48792778254045	317.99141641916776	31.03206342735238
1294	6.465	-111.69231974262965	678.4962329672111	315.361171819612				-207.2555815546761	318.0386969267257	31.003896483518425
1295	6.47	-111.8036550900381	678.7068775638658	315.3426980335046				-207.02394841971363	318.0782190118887	30.98405110457508
1296	6.475	-111.91181613032029	678.9134441224213	315.32598046437215				-206.7936232289818	318.1103105874656	30.97199579637701
1297	6.48	-112.0167446599382	679.1159939953465	315.3110462138318				-206.56516545328867	318.13530316680055	30.967205358560502
1298	6.485	-112.11838582776363	679.3145904105646	315.2979195424903				-206.33909925783962	318.1535309096427	30.969162164691067
1299	6.49	-112.21668819172446	679.5092983292928	315.28662184757394				-206.11591367215237	318.1653296813702	30.97735737424162
1300	6.495	-112.31160377029789	679.7001843041052	315.2771716464927				-205.89606285121124	318.1710361289568	30.99129207403925
1301	6.5	-112.40308808880452	679.8873163374961	315.26958456633804				-205.67996642393678	318.1709867768901	31.010478347161392
1302	6.505	-112.4911002204658	680.0707637412197	315.26387333929557				-205.46800992489682	318.1655171460636	31.034440267607444
1303	6.51	-112.57560282219949	680.2505969966638	315.26004780394373				-205.26054530505706	318.1549608984703	31.06271481941659
1304	6.515	-112.65656216513565	680.4268876165279	315.2581149123921				-205.05789151725668	318.13964901032375	31.094852739245624
1305	6.52	-112.73394815984693	680.5997080080492	315.25807874320145				-204.86033517200138	318.11990897603204	31.130419281759902
1306	6.525	-112.80773437629584	680.7691313380292	315.25994052001244				-204.6681312590905	318.09606404523623	31.16899490752416
1307	6.53	-112.87789805851166	680.9352313998944	315.26369863579805				-204.48150393053783	318.06843249492135	31.21017589340613
1308	6.535	-112.94442013401935	681.0980824830222	315.26934868263993				-204.30064734020476	318.0373269383904	31.253574865823573
1309	6.54	-113.00728521805097	681.2577592445513	315.276883486918				-204.1257265355412	318.0030536726833	31.298821257472145
1310	6.545	-113.06648161257984	681.4143365838909	315.2862931497892				-203.95687839682302	317.9659120658082	31.345561688467225
1311	6.55	-113.1220013002269	681.5678895201261	315.29756509282015				-203.7942126192836	317.9261939849455	31.39346027311487
1312	6.555	-113.1738399330959	681.718493072514	315.3106841086268				-203.637812733562	317.88418326657404	31.442198853795297
1313	6.56	-113.2219968166034	681.866222144249	315.3256324163612				-203.48773715992854	317.840155229265	31.491477163695134
1314	6.565	-113.26647488837706	682.0111514096702	315.34238972187904				-203.34402029180413	317.79437622968726	31.541012920361748
1315	6.57	-113.3072806923036	682.153355205067	315.360933282409				-203.20667360415342	317.7471032621729	31.59054185227303
1316	6.575	-113.34442434781458	682.2929074232324	315.38123797553453				-203.07568678241563	317.6985836019985	31.639817660818572
1317	6.58	-113.37791951450612	682.4298814119006	315.40327637229257				-202.95102886772514	317.64905449235323	31.68861192027311
1318	6.585	-113.40778335219471	682.5643498761905	315.4270188141831				-202.8326494142787	317.5987428747868	31.73671391850955
1319	6.59	-113.43403647651756	682.6963847851694	315.45243349387687				-202.72047965481943	317.54786516275624	31.78393044134686
1320	6.595	-113.45670291019253	682.8260572826356	315.47948653940057				-202.61443367033107	317.49662705772926	31.830085503557857
1321	6.6	-113.47581003005791	682.9534376022096	315.50814210157233				-202.514409560167	317.44522340714207	31.87502002967252
1322	6.605	-113.49138851001771	683.0785949868055	315.5383624444563				-202.42029060897949	317.3938381033658	31.918591487805134
1323	6.61	-113.5034722600232	683.2015976125494	315.5701080385959				-202.33194644696118	317.34264402269366	31.960673479807788
1324	6.615	-113.5120983612257	683.322512517193	315.6033376567854				-202.24923420006445	317.29180300323105	32.00115529110915
1325	6.62	-113.51730699744049	683.4414055330595	315.6380084721316				-202.17199962702327	317.24146586045117	32.03994140363631
1326	6.625	-113.51914138306462	683.5583412245509	315.67407615815597				-202.10007824016526	317.1917724390679	32.07695097523965
1327	6.63	-113.5176476875953	683.6733828302249	315.7114949906843				-202.03329640717013	317.1428516997736	32.11211728904599
1328	6.635	-113.51287495689867	683.7865922094499	315.7502179512704				-201.97147243110044	317.0948218392997	32.145387176155694
1329	6.64	-113.5048750313814	683.8980297936204	315.79019683189614				-201.91441760620492	317.0477904421752	32.17672041507356
1330	6.645	-113.49370246121909	684.0077545419155	315.83138234069213				-201.86193724716782	317.0018546624859	32.20608911122474
1331	6.65	-113.47941441879884	684.1158239015646	315.87372420842104				-201.81383168965465	316.9571014338743	32.23347705985352
1332	6.655	-113.46207060853328	684.2222937725752	315.91717129546953				-201.76989726018041	316.91360770596714	32.25887909553776
1333	6.66	-113.44173317420582	684.327218476869	315.9616716990909				-201.7299272135017	316.8714407053761	32.28230043147444
1334	6.665	-113.41846660400688	684.4306507317552	316.0071728606477				-201.69371263590924	316.8306582193802	32.303755991603914
1335	6.67	-113.39233763342156	684.5326416276727	316.0536216726024				-201.66104331297106	316.7913089003771	32.32326973854245
1336	6.675	-113.36341514612991	684.6332406101033	316.1009645850081				-201.63170856044601	316.7534325891715	32.34087400018586
1337	6.68	-113.33177007307938	684.7324954655725	316.1491477112568				-201.6054980172577	316.7170606551665	32.356608797732015
1338	6.685	-113.29747528989073	684.830452311622	316.19811693284356				-201.5822023995835	316.682216351521	32.37052117774769
1339	6.69	-113.26060551275538	684.9271555906477	316.2478180029135				-201.56161421527474	316.6489151833491	32.38266455077683
1340	6.695	-113.22123719298357	685.0226480674781	316.2981966483612				-201.54352843798364	316.61716528705404	32.39309803885364
1341	6.7	-113.1794484103596	685.1169708305664	316.349198670259				-201.52774314052508	316.58696781891393	32.401885834145155
1342	6.705	-113.13531876545971	685.2101632966591	316.40077004239714				-201.51406008715168	316.5583173510701	32.409096570806355
1343	6.71	-113.08892927108666	685.3022632187989	316.4528570077261				-201.5022852845636	316.5312022731066	32.414802711985786
1344	6.715	-113.0403622429716	685.3933066975138	316.5054061724977				-201.49222949161538	316.5056051974551	32.41907995377299
1345	6.72	-112.98970118989355	685.483328195039	316.55836459791067				-201.48370868781447	316.4815033669107	32.42200664773067
1346	6.725	-112.93703070336254	685.5723605524136	316.61167988907414				-201.47654450083564	316.45886906260057	32.42366324350589
1347	6.73	-112.8824363470111	685.6604350092895	316.6653002811115				-201.47056459339677	316.4376700108086	32.424131752866344
1348	6.735	-112.82600454583542	685.7475812262863	316.7191747222359				-201.46560300995915	316.41786978712577	32.42349523635937
1349	6.74	-112.76782247542506	685.8338273097244	316.7732529536385				-201.46150048382478	316.39942821646673	32.42183731364587
1350	6.745	-112.70797795131638	685.919199838564	316.8274855860399				-201.45810470530924	316.3823017675642	32.419241698416116
1351	6.75	-112.6465593186029	686.0037238933801	316.88182417276533				-201.45527055176598	316.3664439406323	32.41579175865344
1352	6.755	-112.58365534193098	686.0874230871959	316.9362212792157				-201.45286028033024	316.3518056469694	32.41157010287228
1353	6.76	-112.51935509600783	686.1703195980059	316.990630548615				-201.45074368433714	316.33833557935	32.406658192822434
1354	6.765	-112.45374785674407	686.2524342028115	317.04500676392746				-201.44879821444653	316.3259805721426	32.401135983019586
1355	6.77	-112.38692299315	686.3337863129968	317.09930590584935				-201.44690906558264	316.31468595017407	32.3950815873352
1356	6.775	-112.31896986010247	686.4143940108764	317.15348520678816				-201.444969230862	316.3043958654446	32.388570972756405
1357	6.78	-112.24997769209381	686.4942740872426	317.2075032007576				-201.4428795237449	316.2950536208882	32.38167768030901
1358	6.785	-112.18003549807287	686.573442079748	317.26131976912615				-201.44054856969962	316.28660198045645	32.374472573024335
1359	6.79	-112.10923195748398	686.651912311961	317.31489618216693				-201.43789276871917	316.278983464892	32.367023610723464
1360	6.795	-112.03765531760638	686.7296979329349	317.36819513637323				-201.4348362300709	316.2721406326428	32.35939565129161
1361	6.8	-111.9653932922937	686.8068109571323	317.42118078750974				-201.43131068069906	316.2660163454535	32.35165027801901
1362	6.805	-111.89253296221	686.8832623045628	317.4738187793858				-201.42725534872858	316.26055401825334	32.34384565249586
1363	6.81	-111.81916067665541	686.9590618409811	317.52607626834634				-201.42261682354757	316.25569785304174	32.336036392464486
1364	6.815	-111.7453619570723	687.0342184180145	317.5779219434878				-201.41734889396392	316.25139305655307	32.32827347395452
1365	6.82	-111.67122140231913	687.1087399130835	317.6293260426195				-201.4114123659466	316.2475860415585	32.32060415695536
1366	6.825	-111.59682259579735	687.1826332689931	317.6802603640004				-201.40477486147338	316.24422461174083	32.313071933814655
1367	6.83	-111.52224801451332	687.2559045330748	317.7306982738933				-201.39741060001015	316.2412581301451	32.30571649949228
1368	6.835	-111.4475789401556	687.328558895772	317.7806147099906				-201.389300164148	316.23863767128535	32.29857374274585
